<mxfile host="65bd71144e">
    <diagram name="Page-1" id="MVUO56eXqKpAhezhZcp3">
        <mxGraphModel dx="522" dy="647" grid="1" gridSize="10" guides="1" tooltips="1" connect="1" arrows="1" fold="1" page="1" pageScale="1" pageWidth="850" pageHeight="1100" math="0" shadow="0">
            <root>
                <mxCell id="0"/>
                <mxCell id="1" parent="0"/>
                <mxCell id="oQIe6zk9vqxr4BpjPy98-1" value="Public" style="rounded=1;whiteSpace=wrap;html=1;fillColor=#d5e8d4;strokeColor=#82b366;" parent="1" vertex="1">
                    <mxGeometry x="174" y="120" width="120" height="60" as="geometry"/>
                </mxCell>
                <mxCell id="oQIe6zk9vqxr4BpjPy98-2" value="Private" style="rounded=1;whiteSpace=wrap;html=1;fillColor=#d5e8d4;strokeColor=#82b366;" parent="1" vertex="1">
                    <mxGeometry x="460" y="120" width="120" height="60" as="geometry"/>
                </mxCell>
                <mxCell id="oQIe6zk9vqxr4BpjPy98-22" value="" style="image;aspect=fixed;html=1;points=[];align=center;fontSize=12;image=img/lib/azure2/security/Key_Vaults.svg;" parent="1" vertex="1">
                    <mxGeometry x="120" y="230" width="68" height="68" as="geometry"/>
                </mxCell>
                <mxCell id="oQIe6zk9vqxr4BpjPy98-24" value="" style="image;aspect=fixed;html=1;points=[];align=center;fontSize=12;image=img/lib/azure2/security/Key_Vaults.svg;" parent="1" vertex="1">
                    <mxGeometry x="200" y="230" width="68" height="68" as="geometry"/>
                </mxCell>
                <mxCell id="oQIe6zk9vqxr4BpjPy98-25" value="" style="image;aspect=fixed;html=1;points=[];align=center;fontSize=12;image=img/lib/azure2/security/Key_Vaults.svg;" parent="1" vertex="1">
                    <mxGeometry x="280" y="230" width="68" height="68" as="geometry"/>
                </mxCell>
                <mxCell id="oQIe6zk9vqxr4BpjPy98-26" value="All keyshares held by validator nodes" style="text;html=1;align=center;verticalAlign=middle;resizable=0;points=[];autosize=1;strokeColor=none;fillColor=none;" parent="1" vertex="1">
                    <mxGeometry x="120" y="308" width="220" height="30" as="geometry"/>
                </mxCell>
                <mxCell id="oQIe6zk9vqxr4BpjPy98-28" value="" style="image;aspect=fixed;html=1;points=[];align=center;fontSize=12;image=img/lib/azure2/security/Key_Vaults.svg;" parent="1" vertex="1">
                    <mxGeometry x="406" y="230" width="68" height="68" as="geometry"/>
                </mxCell>
                <mxCell id="oQIe6zk9vqxr4BpjPy98-29" value="" style="image;aspect=fixed;html=1;points=[];align=center;fontSize=12;image=img/lib/azure2/security/Key_Vaults.svg;" parent="1" vertex="1">
                    <mxGeometry x="486" y="230" width="68" height="68" as="geometry"/>
                </mxCell>
                <mxCell id="oQIe6zk9vqxr4BpjPy98-30" value="" style="image;aspect=fixed;html=1;points=[];align=center;fontSize=12;image=img/lib/azure2/security/Key_Vaults.svg;" parent="1" vertex="1">
                    <mxGeometry x="566" y="230" width="68" height="68" as="geometry"/>
                </mxCell>
                <mxCell id="oQIe6zk9vqxr4BpjPy98-31" value="&lt;div&gt;Keyshares held by validator&lt;/div&gt;&lt;div&gt;nodes as well as the user&lt;/div&gt;" style="text;html=1;align=center;verticalAlign=middle;resizable=0;points=[];autosize=1;strokeColor=none;fillColor=none;" parent="1" vertex="1">
                    <mxGeometry x="431" y="303" width="170" height="40" as="geometry"/>
                </mxCell>
                <mxCell id="oQIe6zk9vqxr4BpjPy98-36" value="&lt;div&gt;Anyone can submit a request&lt;/div&gt;&lt;div&gt;to sign a message&lt;/div&gt;" style="text;html=1;align=center;verticalAlign=middle;resizable=0;points=[];autosize=1;strokeColor=none;fillColor=none;" parent="1" vertex="1">
                    <mxGeometry x="150" y="343" width="180" height="40" as="geometry"/>
                </mxCell>
                <mxCell id="oQIe6zk9vqxr4BpjPy98-38" value="" style="shape=actor;whiteSpace=wrap;html=1;fillColor=#d5e8d4;strokeColor=#82b366;" parent="1" vertex="1">
                    <mxGeometry x="600" y="240" width="40" height="58" as="geometry"/>
                </mxCell>
                <mxCell id="oQIe6zk9vqxr4BpjPy98-40" value="Signing only possible with participation from the user" style="text;html=1;strokeColor=none;fillColor=none;align=center;verticalAlign=middle;whiteSpace=wrap;rounded=0;" parent="1" vertex="1">
                    <mxGeometry x="425" y="353" width="195" height="30" as="geometry"/>
                </mxCell>
            </root>
        </mxGraphModel>
    </diagram>
</mxfile>